<svg xmlns="http://www.w3.org/2000/svg" xmlns:xlink="http://www.w3.org/1999/xlink" version="1.1" x="0px" y="0px" viewBox="0 0 100 125" enable-background="new 0 0 100 100" xml:space="preserve"><g><g><path d="M72,38.1c-7.1,1.4-10.3,8.4-15,8.4c-4.6-0.1-20.5-3.6-33-22.1c0,0-3.6,29.8,14,38c0,0-8.3,7.7-22.6,5.7    c0,0,2.6,14.8,7.7,19.4c0,0,8.3-9.2,14.6-9.6c6.2-0.3,22,1.8,27.4-9.1c5.3-10.9,3-22.5,16.6-24.9C81.7,43.9,79.1,36.7,72,38.1z"/><path d="M76.1,27.9c0,0-3-6.1-10.2-4.5C65.9,23.4,69.9,30.9,76.1,27.9z"/><path d="M89.6,21.7c0,0-7.6,3.9-4.6,10.2C85,31.9,91.2,28.9,89.6,21.7z"/><path d="M85.2,13.5c0,0-6.5,5.5-2.2,10.9C83,24.4,88.4,20.2,85.2,13.5z"/><path d="M77.9,48.3c-0.3,2.3-0.2,4.2,0.1,7.1c0.1,0.8,0.7,1.3,1.5,1.3c0.1,0,0.1,0,0.2,0c0.8-0.1,1.4-0.8,1.3-1.6    c-0.3-3.3-0.3-5.1,0.2-8.2C79.8,47.3,78.8,47.8,77.9,48.3z"/><path d="M67,31.3c0,0,5.5,6.5,10.9,2.1C77.9,33.4,73.7,28.1,67,31.3z"/><path d="M44.1,20.1c-0.1,6.7-1.8,13.5-2.9,17.3c6.9,4.6,12.6,5.7,14.9,6C57,30.9,44.1,20.1,44.1,20.1z"/><path d="M78.4,21.7c-0.8,1-1.5,1.9-1.9,2.4c0.8,1.3,3.6,6.7,3.3,12.8c1.1,0.7,2,1.6,2.7,2.5c1.5-8.8-3.5-16.8-3.7-17.1    C78.7,22,78.6,21.8,78.4,21.7z"/><path d="M75.8,10.3c0,0-6,5.3-0.7,11.6C75.1,21.8,81.4,17,75.8,10.3z"/></g></g></svg>
