<svg xmlns="http://www.w3.org/2000/svg" xmlns:xlink="http://www.w3.org/1999/xlink" version="1.1" x="0px" y="0px" viewBox="0 0 100 100" style="enable-background:new 0 0 100 100;" xml:space="preserve"><style type="text/css">
	.st0{fill:none;}
	.st1{fill:#000;}
</style><path d="M50,12.3c-14.1,0-25.5,11.4-25.5,25.6c0,3.7,0.8,7.1,2.1,10.3l22,42.7c0.6,1.2,2.2,1.2,2.8,0l22-42.7  c1.4-3.1,2.1-6.6,2.1-10.3C75.5,23.7,64.1,12.3,50,12.3z M50,58.4c-11.4,0-20.7-9.3-20.7-20.7C29.3,26.3,38.6,17,50,17  s20.7,9.3,20.7,20.7C70.7,49.1,61.4,58.4,50,58.4z"></path><path d="M51.7,54V50c2.4-0.4,4.2-1.3,5.4-2.6c1.2-1.3,1.8-2.9,1.8-4.7c0-1.8-0.5-3.3-1.5-4.5c-1-1.2-2.7-2.2-5.1-3.1  c-1.8-0.6-3-1.2-3.8-1.7c-0.8-0.5-1.2-1.1-1.1-1.7c0-0.6,0.2-1.1,0.7-1.6c0.5-0.5,1.4-0.7,2.7-0.7c1.6,0,2.8,0.2,3.8,0.5  c1,0.3,1.7,0.6,2.2,0.9l1.2-4.5c-0.7-0.3-1.4-0.6-2.4-0.9c-0.9-0.2-2.1-0.4-3.4-0.4v-3.5h-3.9v3.8c-2.2,0.4-3.9,1.3-5,2.5  c-1.2,1.3-1.7,2.8-1.8,4.6c0,1.9,0.7,3.5,1.9,4.6s3,2.1,5.1,2.8c1.5,0.5,2.6,1,3.4,1.6c0.8,0.5,1.2,1.2,1.2,2c0,0.8-0.4,1.4-1.2,1.8  c-0.8,0.4-1.8,0.7-2.9,0.7c-1.3,0-2.5-0.2-3.6-0.5c-1.1-0.3-2.1-0.8-2.9-1.2l-1.2,4.7c0.7,0.4,1.6,0.8,2.8,1.1  c1.2,0.3,2.4,0.5,3.8,0.6V54L51.7,54L51.7,54z"></path></svg>
