<svg xmlns="http://www.w3.org/2000/svg" xmlns:xlink="http://www.w3.org/1999/xlink" version="1.1" x="0px" y="0px" viewBox="0 0 72 90" enable-background="new 0 0 72 72" xml:space="preserve"><g><ellipse fill="#000000" cx="36" cy="20.6" rx="7.4" ry="8.4"/><path fill="#000000" d="M36,0.5c-14,0-25.3,11.3-25.3,25.3c0,11.7,17.7,36.8,23.5,44.8c0.9,1.2,2.7,1.2,3.6,0   c5.8-7.9,23.5-33.1,23.5-44.8C61.3,11.8,50,0.5,36,0.5z M48,37.1c-1.5-2.6-3.9-4.6-6.6-5.8c-0.4-0.2-0.9-0.1-1.2,0.3l-3.3,3.3   c-0.5,0.5-1.2,0.5-1.6,0l-3.3-3.3c-0.3-0.3-0.8-0.4-1.2-0.3c-2.8,1.2-5.1,3.2-6.6,5.8c-0.3,0.4-0.9,0.5-1.2,0.1   c-3-3.5-4.6-8.2-4.1-13.2c0.9-8.4,7.9-15,16.3-15.5c10.1-0.6,18.4,7.4,18.4,17.4c0,4.3-1.6,8.3-4.2,11.3   C48.9,37.5,48.3,37.5,48,37.1z"/></g></svg>
